<?xml version="1.0" encoding="UTF-8"?>
<svg id="Layer_1" data-name="Layer 1" xmlns="http://www.w3.org/2000/svg" viewBox="0 0 352.37 233.71">
  <defs>
    <style>
      .cls-1 {
        fill: #dacdb2;
      }
    </style>
  </defs>
  <g>
    <path class="cls-1" d="M92.66,214.85l6.69-18.07h1.39l6.73,18.07h-1.2l-4.78-12.9c-.24-.65-.48-1.36-.75-2.12s-.55-1.61-.86-2.56h.29c-.3.95-.58,1.81-.85,2.58-.27.76-.52,1.47-.75,2.1l-4.72,12.9h-1.21ZM95.53,209.17v-1.04h9.07v1.04h-9.07Z"/>
    <path class="cls-1" d="M118.28,214.85v-18.07h1.15v17.01h8.8v1.06h-9.96Z"/>
    <path class="cls-1" d="M144.12,205.31v1.04h-7.13v-1.04h7.13Z"/>
    <path class="cls-1" d="M153.44,214.85l6.69-18.07h1.39l6.73,18.07h-1.2l-4.78-12.9c-.24-.65-.48-1.36-.75-2.12s-.55-1.61-.86-2.56h.29c-.3.95-.58,1.81-.85,2.58-.27.76-.52,1.47-.75,2.1l-4.72,12.9h-1.21ZM156.31,209.17v-1.04h9.07v1.04h-9.07Z"/>
    <path class="cls-1" d="M175.77,197.84v-1.05h12.69v1.05h-5.77v17.02h-1.14v-17.02h-5.77Z"/>
    <path class="cls-1" d="M199.94,214.85v-18.07h1.14v8.31h10.82v-8.31h1.14v18.07h-1.14v-8.71h-10.82v8.71h-1.14Z"/>
    <path class="cls-1" d="M225.71,214.85v-18.07h10.09v1.05h-8.95v7.42h8.41v1.06h-8.41v7.48h9.16v1.06h-10.3Z"/>
    <path class="cls-1" d="M247.81,214.85v-18.07h5.6c1.14,0,2.12.22,2.94.67s1.45,1.07,1.89,1.87c.44.8.66,1.72.66,2.77s-.22,1.96-.66,2.74c-.44.78-1.07,1.4-1.89,1.84-.82.44-1.8.66-2.94.66h-4.99v-1.06h4.95c.91,0,1.7-.17,2.35-.52.65-.34,1.16-.83,1.51-1.46s.53-1.36.53-2.21-.18-1.6-.53-2.24c-.35-.64-.86-1.13-1.51-1.49s-1.44-.53-2.37-.53h-4.41v17.03h-1.14ZM258.4,214.85l-4.41-8.2h1.29l4.44,8.2h-1.31Z"/>
  </g>
  <g>
    <rect class="cls-1" x="105.27" y="168.42" width="14.07" height="13.25" rx="1.41" ry="1.41"/>
    <rect class="cls-1" x="122.74" y="168.42" width="14.07" height="13.25" rx="1.41" ry="1.41"/>
    <rect class="cls-1" x="211.8" y="53.04" width="14.07" height="13.25" rx="1.41" ry="1.41"/>
    <rect class="cls-1" x="203.52" y="69.19" width="14.07" height="13.25" rx="1.41" ry="1.41"/>
    <rect class="cls-1" x="220.9" y="69.27" width="14.07" height="13.25" rx="1.41" ry="1.41"/>
    <rect class="cls-1" x="317.97" y="42.91" width="14.08" height="119.69"/>
    <polygon class="cls-1" points="258.38 54.74 234.23 54.74 234.23 49.82 239.22 49.82 237.76 48.11 237.59 38.62 239 37.23 257.09 37.23 257.06 42.15 243.88 42.25 242.49 43.64 242.49 48.36 243.88 49.76 248.54 49.81 258.38 49.81 258.38 54.74"/>
    <path class="cls-1" d="M312.88,42.91v116.17c0,1.96-1.56,3.53-3.5,3.53h-64.78c-1.94,0-3.53-1.56-3.53-3.53v-8.31c0-.89.35-1.74.97-2.38l29.95-32.12-37.02-56.6h16.59l34.53,49.42c1.39,2.16,2.48,4.6,2.51,7.15.05,2.71-1.09,5.32-2.71,7.48-1.14,1.56-2.53,2.93-3.97,4.22-1.44,1.32-2.73,2.73-4.1,4.12-4.67,4.67-9.24,9.46-13.86,14.18-2.11,2.19-4.22,4.35-6.36,6.51-.17.17-.35.37-.5.57-.12.15-.22.32-.3.52-.37.89.35,1.84,1.29,1.84h39.29c.77,0,1.39-.62,1.39-1.42V42.91h14.08Z"/>
    <path class="cls-1" d="M57.01,143.66c.37,2.66,1.49,5.09,3.18,7.05,2.56,3.03,6.43,4.97,10.73,4.97h43.77c4.67,0,8.79-2.26,11.35-5.76,1.71-2.33,2.73-5.22,2.73-8.32v-53.27h14.08l.1,54.91c.3,2.38,1.17,4.57,2.48,6.43,2.51,3.65,6.73,6.01,11.5,6.01h44.24c5.12,0,9.61-2.73,12.05-6.86,1.29-2.11,2.04-4.6,2.04-7.23l-.07-53.35h14.16v60.93c0,9.07-4.82,13.59-14.41,13.59h-22.08v.02h-64.23v-.02H56.96c-.3,2.53-1.94,5.29-4.92,8.27l-15.05,16.67h-16.68l21.15-24.2c.2-.22.52-.75.89-1.56.4-.84.6-1.89.6-3.15v-70.54h13.88l.17,55.41Z"/>
  </g>
  <rect class="cls-1" x="279.68" y="205.95" width="52.37" height="2.92"/>
  <rect class="cls-1" x="20.32" y="205.95" width="52.37" height="2.92"/>
  <rect class="cls-1" x="67.2" y="23.71" width="211.77" height="2.92"/>
  <g>
    <path class="cls-1" d="M20.32,29.85v-10.84h6.05v.63h-5.37v4.45h5.04v.63h-5.04v4.49h5.49v.63h-6.18Z"/>
    <path class="cls-1" d="M36.63,30.03c-.7,0-1.31-.12-1.83-.36-.52-.24-.93-.57-1.23-.99s-.47-.92-.51-1.47h.7c.03.45.18.83.43,1.16.25.33.58.58,1,.75.42.17.9.26,1.44.26.58,0,1.09-.1,1.53-.29.44-.2.79-.47,1.04-.83.25-.36.37-.77.37-1.23,0-.38-.09-.7-.27-.97s-.44-.5-.79-.7c-.35-.2-.78-.38-1.3-.53l-1.25-.38c-.86-.26-1.52-.62-1.96-1.06-.44-.45-.66-1-.66-1.66,0-.56.15-1.05.44-1.49.3-.43.7-.77,1.21-1.02.51-.24,1.09-.37,1.73-.37s1.22.12,1.72.37.89.59,1.18,1.02c.29.43.45.92.48,1.48h-.68c-.05-.66-.32-1.2-.81-1.62-.49-.42-1.12-.62-1.9-.62-.52,0-.98.1-1.39.29-.41.19-.73.46-.96.79-.23.34-.35.72-.35,1.15,0,.37.09.69.28.96.19.27.45.51.78.7.33.19.71.35,1.15.48l1.19.35c.41.13.78.27,1.13.44s.64.36.9.58c.26.22.46.48.6.78.14.3.21.64.21,1.04,0,.57-.15,1.08-.44,1.54-.3.45-.71.81-1.25,1.07-.54.26-1.18.39-1.91.39Z"/>
    <path class="cls-1" d="M46.59,19.64v-.63h7.61v.63h-3.46v10.21h-.68v-10.21h-3.46Z"/>
  </g>
  <g>
    <path class="cls-1" d="M302,30c-.73,0-1.35-.22-1.87-.67-.52-.44-.92-1.08-1.2-1.91-.28-.83-.42-1.82-.42-2.98s.14-2.15.42-2.99c.28-.83.68-1.47,1.2-1.92.52-.45,1.15-.67,1.87-.67s1.35.22,1.87.67c.52.45.92,1.09,1.2,1.92.28.83.42,1.83.42,2.99s-.14,2.15-.42,2.98c-.28.83-.67,1.47-1.19,1.91-.52.44-1.15.67-1.88.67ZM302,29.37c.59,0,1.09-.2,1.51-.59.42-.4.74-.96.97-1.7s.34-1.62.34-2.65-.11-1.92-.34-2.66c-.23-.74-.55-1.31-.97-1.7-.42-.39-.92-.59-1.51-.59s-1.09.2-1.51.59c-.42.4-.75.96-.97,1.7-.23.74-.34,1.62-.34,2.66s.11,1.91.34,2.65c.23.73.55,1.3.97,1.7.42.4.93.59,1.51.59Z"/>
    <path class="cls-1" d="M312.26,29.85v-.52l3.51-4.04c.5-.58.9-1.06,1.19-1.46s.5-.76.63-1.08c.13-.32.19-.66.19-1.02,0-.44-.1-.83-.31-1.17s-.48-.6-.83-.79-.75-.29-1.2-.29-.88.1-1.24.31c-.36.21-.63.49-.83.84-.2.36-.29.76-.29,1.2h-.66c0-.56.13-1.07.39-1.52.26-.45.62-.8,1.08-1.07.46-.26.98-.39,1.57-.39s1.1.13,1.55.38.81.59,1.06,1.03c.26.43.39.92.39,1.47,0,.39-.07.77-.2,1.14-.13.37-.36.78-.69,1.23-.33.46-.79,1.02-1.37,1.68l-2.93,3.38v.06h5.68v.63h-6.66Z"/>
    <path class="cls-1" d="M328.71,30c-.59,0-1.11-.12-1.56-.37s-.81-.59-1.07-1.02c-.26-.43-.4-.92-.41-1.47h.67c0,.43.12.82.32,1.15s.48.6.83.79.76.29,1.22.29c.52,0,.99-.13,1.39-.38.4-.25.72-.6.94-1.04s.34-.94.34-1.49c0-.58-.12-1.09-.37-1.53-.25-.44-.57-.77-.98-1.01s-.87-.36-1.36-.36c-.39,0-.76.07-1.11.21-.35.14-.64.33-.88.56l-.77-.12.63-5.2h5.12v.64h-4.53l-.49,4.04h.04c.26-.23.56-.41.91-.55s.74-.21,1.15-.21c.46,0,.88.08,1.28.25.4.17.75.41,1.05.72.3.31.54.69.71,1.12.17.43.26.91.26,1.43,0,.68-.14,1.29-.43,1.82-.29.53-.68.95-1.19,1.26-.51.31-1.08.46-1.73.46Z"/>
  </g>
</svg>