<?xml version="1.0" encoding="UTF-8"?>
<svg id="Layer_1" data-name="Layer 1" xmlns="http://www.w3.org/2000/svg" viewBox="0 0 352.37 233.71">
  <defs>
    <style>
      .cls-1 {
        fill: #fff;
      }
    </style>
  </defs>
  <g>
    <path class="cls-1" d="M88.34,219.23l6.99-18.88h1.46l7.03,18.88h-1.25l-4.99-13.48c-.25-.68-.51-1.42-.78-2.22s-.57-1.69-.89-2.67h.3c-.31,1-.61,1.89-.89,2.69-.28.8-.54,1.53-.79,2.2l-4.93,13.48h-1.27ZM91.34,213.29v-1.09h9.48v1.09h-9.48Z"/>
    <path class="cls-1" d="M115.1,219.23v-18.88h1.2v17.78h9.2v1.1h-10.4Z"/>
    <path class="cls-1" d="M142.1,209.26v1.09h-7.45v-1.09h7.45Z"/>
    <path class="cls-1" d="M151.83,219.23l6.99-18.88h1.46l7.03,18.88h-1.25l-4.99-13.48c-.25-.68-.51-1.42-.78-2.22s-.57-1.69-.89-2.67h.3c-.31,1-.61,1.89-.89,2.69-.28.8-.54,1.53-.79,2.2l-4.93,13.48h-1.27ZM154.84,213.29v-1.09h9.48v1.09h-9.48Z"/>
    <path class="cls-1" d="M175.16,201.46v-1.1h13.25v1.1h-6.03v17.78h-1.19v-17.78h-6.03Z"/>
    <path class="cls-1" d="M200.42,219.23v-18.88h1.19v8.68h11.3v-8.68h1.19v18.88h-1.19v-9.1h-11.3v9.1h-1.19Z"/>
    <path class="cls-1" d="M227.34,219.23v-18.88h10.54v1.1h-9.35v7.75h8.78v1.1h-8.78v7.82h9.57v1.1h-10.76Z"/>
    <path class="cls-1" d="M250.42,219.23v-18.88h5.85c1.19,0,2.21.23,3.07.7s1.52,1.12,1.98,1.95c.46.84.69,1.8.69,2.89s-.23,2.04-.69,2.86c-.46.82-1.12,1.46-1.98,1.92-.86.46-1.88.69-3.07.69h-5.21v-1.1h5.17c.95,0,1.77-.18,2.46-.54.68-.36,1.21-.87,1.58-1.52s.55-1.42.55-2.31-.18-1.68-.55-2.34c-.37-.66-.89-1.18-1.58-1.55s-1.51-.56-2.47-.56h-4.61v17.79h-1.19ZM261.49,219.23l-4.61-8.57h1.34l4.64,8.57h-1.37Z"/>
  </g>
  <g>
    <rect class="cls-1" x="101.52" y="170.72" width="14.7" height="13.84" rx="1.47" ry="1.47"/>
    <rect class="cls-1" x="119.77" y="170.72" width="14.7" height="13.84" rx="1.47" ry="1.47"/>
    <rect class="cls-1" x="212.8" y="50.19" width="14.7" height="13.84" rx="1.47" ry="1.47"/>
    <rect class="cls-1" x="204.15" y="67.06" width="14.7" height="13.84" rx="1.47" ry="1.47"/>
    <rect class="cls-1" x="222.31" y="67.14" width="14.7" height="13.84" rx="1.47" ry="1.47"/>
    <rect class="cls-1" x="323.72" y="39.61" width="14.71" height="125.04"/>
    <polygon class="cls-1" points="261.46 51.97 236.24 51.97 236.24 46.82 241.45 46.82 239.93 45.04 239.74 35.13 241.22 33.67 260.11 33.67 260.09 38.82 246.32 38.92 244.87 40.37 244.87 45.3 246.32 46.77 251.19 46.82 261.46 46.82 261.46 51.97"/>
    <path class="cls-1" d="M318.4,39.61v121.36c0,2.05-1.63,3.68-3.66,3.68h-67.67c-2.02,0-3.68-1.63-3.68-3.68v-8.68c0-.93.36-1.82,1.01-2.49l31.29-33.55-38.67-59.13h17.33l36.08,51.63c1.45,2.26,2.59,4.8,2.62,7.47.05,2.83-1.14,5.55-2.83,7.81-1.19,1.63-2.65,3.06-4.15,4.41-1.5,1.38-2.85,2.85-4.28,4.31-4.88,4.88-9.65,9.89-14.48,14.82-2.21,2.28-4.41,4.54-6.64,6.8-.18.18-.36.39-.52.6-.13.16-.23.34-.31.54-.39.93.36,1.92,1.35,1.92h41.05c.8,0,1.45-.65,1.45-1.48V39.61h14.71Z"/>
    <path class="cls-1" d="M51.1,144.85c.39,2.78,1.56,5.32,3.32,7.37,2.67,3.17,6.72,5.19,11.21,5.19h45.72c4.88,0,9.19-2.36,11.86-6.02,1.79-2.44,2.85-5.45,2.85-8.69v-55.65h14.71l.1,57.37c.31,2.49,1.22,4.77,2.59,6.72,2.62,3.81,7.03,6.28,12.01,6.28h46.21c5.35,0,10.04-2.85,12.58-7.16,1.35-2.21,2.13-4.8,2.13-7.55l-.08-55.74h14.79v63.65c0,9.47-5.03,14.19-15.05,14.19h-23.07v.03h-67.1v-.03H51.05c-.31,2.65-2.02,5.53-5.14,8.64l-15.72,17.42H12.76l22.09-25.28c.21-.23.54-.78.93-1.63.42-.88.62-1.97.62-3.3v-73.69h14.5l.18,57.89Z"/>
  </g>
  <rect class="cls-1" x="283.72" y="209.93" width="54.71" height="3.05"/>
  <rect class="cls-1" x="12.76" y="209.93" width="54.71" height="3.05"/>
  <rect class="cls-1" x="61.74" y="19.55" width="221.23" height="3.05"/>
  <g>
    <path class="cls-1" d="M12.76,25.96v-11.33h6.32v.66h-5.61v4.65h5.27v.66h-5.27v4.69h5.74v.66h-6.45Z"/>
    <path class="cls-1" d="M29.8,26.15c-.74,0-1.37-.12-1.92-.37-.54-.25-.97-.59-1.28-1.04s-.49-.96-.53-1.54h.73c.04.47.18.87.45,1.21.26.34.61.6,1.05.79.44.18.94.27,1.5.27.6,0,1.13-.1,1.6-.31.46-.21.82-.49,1.08-.87.26-.37.39-.8.39-1.29,0-.4-.09-.73-.28-1.01s-.46-.52-.83-.73c-.37-.21-.82-.39-1.36-.56l-1.31-.39c-.9-.27-1.58-.64-2.05-1.11-.46-.47-.69-1.04-.69-1.73,0-.58.15-1.1.46-1.55.31-.45.73-.81,1.26-1.06.53-.26,1.14-.38,1.81-.38s1.28.13,1.79.39.93.61,1.23,1.06c.31.45.47.97.5,1.54h-.71c-.06-.69-.34-1.26-.85-1.69-.51-.43-1.17-.65-1.98-.65-.54,0-1.03.1-1.46.3-.43.2-.76.48-1,.83-.24.35-.36.75-.36,1.2,0,.39.1.72.3,1.01.2.29.47.53.82.73.35.2.75.36,1.2.5l1.24.36c.43.13.82.28,1.18.46s.67.38.94.61c.27.23.48.51.62.82.15.31.22.67.22,1.08,0,.6-.15,1.13-.46,1.6-.31.47-.74.84-1.31,1.12-.56.27-1.23.41-2,.41Z"/>
    <path class="cls-1" d="M40.21,15.3v-.66h7.95v.66h-3.62v10.67h-.71v-10.67h-3.62Z"/>
  </g>
  <g>
    <path class="cls-1" d="M307.04,26.12c-.76,0-1.41-.23-1.96-.7-.55-.46-.96-1.13-1.25-2-.29-.87-.44-1.91-.44-3.11s.15-2.25.44-3.12c.29-.87.71-1.54,1.26-2,.55-.47,1.2-.7,1.95-.7s1.41.23,1.95.7c.54.47.96,1.13,1.25,2,.29.87.44,1.91.44,3.12s-.14,2.24-.43,3.11c-.29.87-.7,1.54-1.25,2-.54.46-1.2.7-1.96.7ZM307.04,25.46c.61,0,1.14-.21,1.58-.62.44-.41.78-1,1.01-1.77s.35-1.69.35-2.76-.12-2.01-.35-2.78c-.24-.77-.57-1.36-1.01-1.77-.44-.41-.97-.62-1.58-.62s-1.14.21-1.58.62c-.44.41-.78,1-1.01,1.77-.24.77-.35,1.7-.35,2.77s.12,2,.35,2.76c.24.77.57,1.36,1.01,1.77.44.41.97.62,1.58.62Z"/>
    <path class="cls-1" d="M317.76,25.96v-.54l3.66-4.22c.52-.6.94-1.11,1.24-1.52s.52-.79.65-1.13c.13-.34.2-.69.2-1.06,0-.46-.11-.87-.32-1.22s-.5-.63-.87-.83-.79-.3-1.26-.3-.92.11-1.3.32c-.37.22-.66.51-.87.88-.2.37-.31.79-.31,1.25h-.69c0-.59.14-1.12.41-1.58.27-.47.65-.84,1.13-1.11.48-.27,1.02-.41,1.64-.41s1.15.13,1.62.4.84.62,1.11,1.07c.27.45.4.96.4,1.54,0,.41-.07.81-.21,1.19-.14.38-.38.81-.72,1.29-.34.48-.82,1.06-1.43,1.76l-3.06,3.53v.06h5.93v.65h-6.96Z"/>
    <path class="cls-1" d="M334.93,26.12c-.61,0-1.16-.13-1.63-.39s-.85-.61-1.12-1.06c-.27-.45-.42-.96-.43-1.54h.7c.01.45.12.85.33,1.21s.5.63.87.83.79.3,1.27.3c.55,0,1.03-.13,1.45-.4.42-.27.75-.63.98-1.09s.35-.98.35-1.55c0-.61-.13-1.14-.38-1.6-.26-.46-.6-.81-1.03-1.06s-.9-.38-1.42-.38c-.41,0-.8.07-1.16.22-.36.15-.67.34-.92.58l-.81-.12.66-5.44h5.34v.67h-4.73l-.51,4.22h.05c.27-.24.59-.43.95-.58s.77-.22,1.21-.22c.48,0,.92.09,1.34.27.42.18.78.43,1.1.76.32.33.56.72.74,1.17.18.45.27.95.27,1.5,0,.71-.15,1.34-.45,1.9-.3.56-.71,1-1.24,1.32-.53.32-1.13.48-1.81.48Z"/>
  </g>
</svg>